<svg width="28" height="24" viewBox="0 0 28 24" fill="none" xmlns="http://www.w3.org/2000/svg">
<path d="M24.6665 2.66667H20.4398L17.9998 0H9.99984L7.55984 2.66667H3.33317C1.8665 2.66667 0.666504 3.86667 0.666504 5.33333V21.3333C0.666504 22.8 1.8665 24 3.33317 24H24.6665C26.1332 24 27.3332 22.8 27.3332 21.3333V5.33333C27.3332 3.86667 26.1332 2.66667 24.6665 2.66667ZM24.6665 21.3333H3.33317V5.33333H8.73317L11.1732 2.66667H16.8265L19.2665 5.33333H24.6665V21.3333ZM13.9998 6.66667C10.3198 6.66667 7.33317 9.65333 7.33317 13.3333C7.33317 17.0133 10.3198 20 13.9998 20C17.6798 20 20.6665 17.0133 20.6665 13.3333C20.6665 9.65333 17.6798 6.66667 13.9998 6.66667ZM13.9998 17.3333C11.7998 17.3333 9.99984 15.5333 9.99984 13.3333C9.99984 11.1333 11.7998 9.33333 13.9998 9.33333C16.1998 9.33333 17.9998 11.1333 17.9998 13.3333C17.9998 15.5333 16.1998 17.3333 13.9998 17.3333Z" fill="#29638A"/>
</svg>
